# xmcd
#
# Track frame offsets:
#	150
#	16962
#	33860
#	47897
#	65784
#	81582
#	98185
#	113701
#	129192
#	141907
#	159612
#	173088
#	183888
#	200167
#	220864
#	236511
#	254277
#	271445
#	284045
#
# Disc length: 4008 seconds
#
# Revision: 1
# Processed by: cddbd v1.5.2PL0 Copyright (c) Steve Scherf et al.
# Submitted via: audiograbber 1.83.01
#
DISCID=1d0fa613
DTITLE=Various Artist - Country Radio August 2001
DYEAR=2001
DGENRE=Country
TTITLE0=Brooks and Dunn - Only In America
TTITLE1=Joe Diffie - In Another World
TTITLE2=Terri Clark - Getting There
TTITLE3=Bruce Guthro - Factory Line
TTITLE4=Clay Walker - If You Ever Feel Like Lovin' Me Agian
TTITLE5=Billy Yates - Shadows
TTITLE6=Martina McBride - When God Fearin' Women Get The Blues
TTITLE7=Gary Allan - Man Of Me
TTITLE8=George Jones - Man He Was, The
TTITLE9=Patty Loveless - Strong Heart
TTITLE10=Mark McGuinn - That's A Plan
TTITLE11=Neal McCoy - Right Down Through The Middle Of ...
TTITLE12=Kemmy Chesney - Tin Man, the
TTITLE13=Lucinda Williams - Essence
TTITLE14=3 Of Hearts - Love Is Enough
TTITLE15=Clark Family Experience, The - To Quote Shakespeare
TTITLE16=Blake Shelton - Austin
TTITLE17=Bruce Guthro - Disappear
TTITLE18=Trace Adkins - I'm Tryin'
EXTD=
EXTT0=
EXTT1=
EXTT2=
EXTT3=
EXTT4=
EXTT5=
EXTT6=
EXTT7=
EXTT8=
EXTT9=
EXTT10=
EXTT11=
EXTT12=
EXTT13=
EXTT14=
EXTT15=
EXTT16=
EXTT17=
EXTT18=
PLAYORDER=
